<svg width="53" height="53" viewBox="0 0 53 53" fill="none" xmlns="http://www.w3.org/2000/svg">
<rect width="53" height="53" rx="7" fill="white"/>
<path d="M26.6704 25.9987V19.3988H23.1779C23.2618 19.3397 23.3483 19.2807 23.4349 19.2256C24.6428 18.4456 26.0482 18.0348 27.4983 18.0348C31.6171 18.0348 34.9689 21.3616 34.9689 25.4496V25.9194H42V25.4496C42 23.5083 41.6158 21.6234 40.8584 19.8459C40.1279 18.1315 39.0823 16.5929 37.7513 15.2719C36.4203 13.9509 34.8702 12.9131 33.1429 12.1895C31.3547 11.4363 29.4542 11.055 27.4983 11.055C24.6847 11.055 21.9537 11.8565 19.6028 13.3736C18.9103 13.8206 18.257 14.3254 17.651 14.8826V11H11V19.2323L19.5474 26H26.6704V25.9987Z" fill="#1B1F28"/>
<path d="M26.3569 26V32.6166H29.7998C28.5455 33.5101 27.0468 33.9918 25.4752 33.9918C21.3639 33.9918 18.0182 30.6573 18.0182 26.5598V26.0888H11V26.5598C11 28.5056 11.3834 30.3949 12.1395 32.1766C12.8686 33.895 13.9123 35.4371 15.2395 36.7612C16.5681 38.0853 18.1154 39.1242 19.8396 39.8522C21.6259 40.6057 23.5229 40.9879 25.4752 40.9879C29.1531 40.9879 32.6946 39.583 35.3612 37.099V41H42V32.7834L33.4683 26.0013H26.3582L26.3569 26Z" fill="#1B1F28"/>
</svg>
